<svg xmlns="http://www.w3.org/2000/svg" xmlns:xlink="http://www.w3.org/1999/xlink" width="128" zoomAndPan="magnify" viewBox="0 0 96 30.000001" height="40" preserveAspectRatio="xMidYMid meet" version="1.0"><defs><g/><clipPath id="57a94546fc"><path d="M 9 19 L 12 19 L 12 21.984375 L 9 21.984375 Z M 9 19 " clip-rule="nonzero"/></clipPath><clipPath id="8d7996026d"><path d="M 10.15625 19.433594 L 11 19.433594 L 11 21.960938 L 10.15625 21.960938 Z M 10.15625 19.433594 " clip-rule="nonzero"/></clipPath><clipPath id="0fe85579b4"><path d="M 1.828125 2.417969 L 19.25 2.417969 L 19.25 12.859375 L 1.828125 12.859375 Z M 1.828125 2.417969 " clip-rule="nonzero"/></clipPath></defs><g clip-path="url(#57a94546fc)"><path fill="#2e3030" d="M 11.046875 21.90625 C 11.03125 21.90625 11.015625 21.898438 11 21.882812 C 10.976562 21.859375 10.980469 21.816406 11.003906 21.792969 C 11.066406 21.734375 11.121094 21.632812 11.089844 21.53125 C 11.058594 21.421875 10.910156 21.226562 10.273438 21.117188 C 9.878906 21.050781 9.617188 20.890625 9.496094 20.648438 C 9.367188 20.386719 9.402344 20.042969 9.597656 19.648438 C 9.613281 19.617188 9.652344 19.605469 9.679688 19.621094 C 9.710938 19.636719 9.722656 19.671875 9.707031 19.703125 C 9.585938 19.953125 9.46875 20.308594 9.605469 20.589844 C 9.710938 20.796875 9.941406 20.933594 10.292969 20.992188 C 10.964844 21.105469 11.164062 21.328125 11.210938 21.492188 C 11.257812 21.652344 11.179688 21.800781 11.089844 21.886719 C 11.078125 21.898438 11.0625 21.90625 11.046875 21.90625 " fill-opacity="1" fill-rule="nonzero"/></g><g clip-path="url(#8d7996026d)"><path fill="#2e3030" d="M 10.523438 21.960938 C 10.40625 21.960938 10.289062 21.855469 10.203125 21.773438 C 10.179688 21.75 10.179688 21.707031 10.203125 21.683594 C 10.226562 21.65625 10.265625 21.65625 10.289062 21.683594 C 10.40625 21.796875 10.496094 21.847656 10.546875 21.828125 C 10.734375 21.753906 10.785156 20.921875 10.867188 19.664062 L 10.875 19.539062 C 10.878906 19.503906 10.90625 19.480469 10.941406 19.480469 C 10.976562 19.484375 11.003906 19.515625 11 19.550781 L 10.992188 19.671875 C 10.898438 21.164062 10.851562 21.84375 10.59375 21.945312 C 10.570312 21.957031 10.546875 21.960938 10.523438 21.960938 " fill-opacity="1" fill-rule="nonzero"/></g><path fill="#2e3030" d="M 7.789062 17.210938 C 7.550781 17.210938 7.292969 17.128906 7.011719 16.964844 C 6.980469 16.945312 6.972656 16.910156 6.988281 16.878906 C 7.003906 16.851562 7.042969 16.839844 7.070312 16.859375 C 7.625 17.183594 8.066406 17.167969 8.421875 16.8125 C 8.445312 16.789062 8.484375 16.789062 8.507812 16.8125 C 8.53125 16.835938 8.527344 16.875 8.503906 16.898438 C 8.296875 17.109375 8.058594 17.210938 7.789062 17.210938 " fill-opacity="1" fill-rule="nonzero"/><path fill="#2e3030" d="M 6.996094 16.695312 C 7.085938 16.742188 7.113281 16.847656 7.058594 16.929688 C 7.007812 17.011719 6.890625 17.042969 6.800781 16.996094 C 6.726562 16.957031 6.710938 16.820312 6.742188 16.761719 C 6.789062 16.675781 6.90625 16.648438 6.996094 16.695312 " fill-opacity="1" fill-rule="nonzero"/><path fill="#2e3030" d="M 7.042969 16.929688 C 7.015625 16.929688 6.992188 16.914062 6.984375 16.886719 C 6.980469 16.878906 6.910156 16.679688 6.949219 16.496094 C 6.957031 16.460938 6.988281 16.441406 7.023438 16.449219 C 7.054688 16.457031 7.074219 16.488281 7.070312 16.519531 C 7.035156 16.671875 7.097656 16.84375 7.097656 16.847656 C 7.109375 16.878906 7.09375 16.914062 7.0625 16.925781 C 7.054688 16.925781 7.046875 16.929688 7.042969 16.929688 " fill-opacity="1" fill-rule="nonzero"/><path fill="#2f6e38" d="M 4.792969 11.351562 C 5.042969 13.714844 8.320312 14.046875 8.457031 11.957031 C 8.703125 13.539062 12.738281 13.863281 13.1875 11.871094 C 13.105469 13.5 16.121094 13.960938 16.46875 10.289062 C 16.847656 6.292969 4.121094 5.050781 4.792969 11.351562 " fill-opacity="1" fill-rule="nonzero"/><path fill="#aed446" d="M 15.375 9.527344 C 15.074219 8.960938 13.8125 8.652344 13.8125 8.652344 C 13.71875 10.316406 12.484375 12.351562 12.171875 12.304688 C 11.671875 12.234375 11.890625 10.5625 12.121094 8.265625 C 11.582031 8.191406 10.957031 8.152344 10.398438 8.15625 C 10.378906 10.335938 10.550781 12.402344 9.96875 12.421875 C 9.519531 12.4375 8.351562 10.902344 7.925781 8.519531 C 7.925781 8.519531 6.488281 8.980469 6.066406 9.574219 C 5.566406 10.28125 6.4375 10.660156 6.933594 11.746094 C 7.808594 13.664062 8.84375 16.769531 8.082031 18.761719 C 7.832031 19.414062 9.1875 19.652344 10.367188 19.703125 C 11.472656 19.753906 12.730469 19.605469 12.667969 19.019531 C 12.453125 16.972656 12.539062 15.488281 13.359375 13.21875 C 13.976562 11.523438 15.824219 10.367188 15.375 9.527344 " fill-opacity="1" fill-rule="nonzero"/><g clip-path="url(#0fe85579b4)"><path fill="#479444" d="M 10.277344 9.472656 C 10.269531 10.628906 9.335938 11.097656 8.730469 10.316406 C 9.09375 11.398438 6.914062 12.246094 6.5 11.445312 C 6.609375 13.316406 3.484375 13.035156 3.628906 11.027344 C 1.613281 11.1875 1.066406 8.027344 3.160156 7.378906 C 1.847656 6.078125 3.308594 4.136719 5.074219 5.082031 C 4.273438 2.859375 7.484375 2.246094 7.570312 4.46875 C 7.660156 2.507812 9.789062 2.765625 10.011719 4.007812 C 9.859375 1.703125 13.269531 2 12.683594 4.269531 C 13.480469 2.367188 15.410156 3.746094 14.820312 5.175781 C 15.636719 3.21875 18.089844 4.085938 17.054688 6.269531 C 19.707031 6.3125 19.910156 9.609375 17.914062 10.535156 C 18.769531 12.324219 15.367188 14.144531 14.433594 11.480469 C 13.640625 11.945312 12.828125 11.046875 13.292969 10.222656 C 12.351562 11.929688 10.398438 10.84375 10.277344 9.472656 " fill-opacity="1" fill-rule="nonzero"/></g><path fill="#198045" d="M 6.800781 6.601562 C 6.808594 6.816406 6.644531 6.992188 6.433594 7 C 6.222656 7.003906 6.050781 6.839844 6.042969 6.625 C 6.039062 6.414062 6.203125 6.234375 6.410156 6.230469 C 6.621094 6.222656 6.796875 6.390625 6.800781 6.601562 " fill-opacity="1" fill-rule="nonzero"/><path fill="#198045" d="M 6.996094 4.597656 C 7.003906 4.878906 6.785156 5.117188 6.503906 5.125 C 6.226562 5.132812 5.992188 4.910156 5.984375 4.628906 C 5.976562 4.34375 6.195312 4.109375 6.476562 4.101562 C 6.753906 4.089844 6.988281 4.316406 6.996094 4.597656 " fill-opacity="1" fill-rule="nonzero"/><path fill="#198045" d="M 3.871094 7.855469 C 3.875 8.023438 3.746094 8.160156 3.582031 8.167969 C 3.417969 8.171875 3.28125 8.039062 3.277344 7.875 C 3.269531 7.707031 3.402344 7.566406 3.566406 7.5625 C 3.730469 7.558594 3.867188 7.6875 3.871094 7.855469 " fill-opacity="1" fill-rule="nonzero"/><path fill="#198045" d="M 4.984375 6.53125 C 4.992188 6.820312 4.769531 7.0625 4.484375 7.070312 C 4.203125 7.078125 3.964844 6.851562 3.957031 6.5625 C 3.949219 6.273438 4.171875 6.035156 4.453125 6.023438 C 4.738281 6.015625 4.976562 6.242188 4.984375 6.53125 " fill-opacity="1" fill-rule="nonzero"/><path fill="#198045" d="M 13.339844 4.679688 C 13.476562 4.585938 13.664062 4.621094 13.757812 4.761719 C 13.851562 4.898438 13.816406 5.089844 13.679688 5.1875 C 13.542969 5.28125 13.355469 5.246094 13.261719 5.105469 C 13.167969 4.964844 13.203125 4.777344 13.339844 4.679688 " fill-opacity="1" fill-rule="nonzero"/><path fill="#198045" d="M 15.3125 5.023438 C 15.515625 4.882812 15.789062 4.9375 15.925781 5.140625 C 16.0625 5.34375 16.011719 5.625 15.8125 5.761719 C 15.609375 5.902344 15.335938 5.851562 15.199219 5.644531 C 15.0625 5.441406 15.113281 5.164062 15.3125 5.023438 " fill-opacity="1" fill-rule="nonzero"/><path fill="#198045" d="M 17.410156 7.644531 C 17.480469 7.804688 17.414062 7.992188 17.257812 8.066406 C 17.101562 8.140625 16.914062 8.070312 16.84375 7.910156 C 16.769531 7.75 16.839844 7.5625 16.996094 7.488281 C 17.152344 7.414062 17.335938 7.484375 17.410156 7.644531 " fill-opacity="1" fill-rule="nonzero"/><path fill="#198045" d="M 17.035156 8.5625 C 17.132812 8.78125 17.039062 9.035156 16.828125 9.136719 C 16.613281 9.238281 16.359375 9.140625 16.261719 8.925781 C 16.164062 8.710938 16.257812 8.453125 16.472656 8.351562 C 16.683594 8.253906 16.9375 8.347656 17.035156 8.5625 " fill-opacity="1" fill-rule="nonzero"/><path fill="#f2f4f4" d="M 11.011719 16.703125 C 10.914062 16.839844 10.816406 16.949219 10.71875 17.03125 C 10.664062 17.078125 10.605469 17.117188 10.550781 17.148438 C 10.402344 17.234375 10.265625 17.265625 10.148438 17.273438 C 9.949219 17.289062 9.765625 17.238281 9.617188 17.148438 C 9.472656 17.0625 9.363281 16.945312 9.304688 16.828125 C 9.300781 16.820312 9.300781 16.808594 9.308594 16.800781 C 9.316406 16.792969 9.328125 16.789062 9.339844 16.789062 L 10.972656 16.664062 C 10.988281 16.660156 11 16.664062 11.007812 16.671875 C 11.015625 16.683594 11.019531 16.691406 11.011719 16.703125 " fill-opacity="1" fill-rule="nonzero"/><path fill="#111111" d="M 10.460938 15.355469 C 10.449219 15.355469 10.4375 15.351562 10.425781 15.339844 C 10.25 15.183594 9.878906 15.175781 9.703125 15.320312 C 9.679688 15.339844 9.644531 15.339844 9.625 15.3125 C 9.605469 15.289062 9.609375 15.253906 9.632812 15.234375 C 9.851562 15.046875 10.285156 15.058594 10.5 15.253906 C 10.523438 15.277344 10.527344 15.3125 10.503906 15.335938 C 10.492188 15.347656 10.476562 15.355469 10.460938 15.355469 " fill-opacity="1" fill-rule="nonzero"/><path fill="#111111" d="M 12.109375 15.230469 L 12.683594 15.027344 C 12.707031 15.019531 12.730469 15.03125 12.738281 15.054688 C 12.746094 15.070312 12.738281 15.089844 12.722656 15.101562 L 12.238281 15.472656 C 12.175781 15.519531 12.089844 15.507812 12.046875 15.445312 C 12 15.382812 12.011719 15.296875 12.074219 15.25 C 12.082031 15.242188 12.097656 15.234375 12.109375 15.230469 " fill-opacity="1" fill-rule="nonzero"/><path fill="#111111" d="M 9.960938 15.675781 C 9.964844 15.921875 9.507812 16.351562 8.933594 16.363281 C 8.359375 16.371094 7.886719 15.976562 7.882812 15.710938 C 7.875 15.339844 7.949219 15.039062 8.910156 15.023438 C 9.871094 15.003906 9.953125 15.304688 9.960938 15.675781 " fill-opacity="1" fill-rule="nonzero"/><path fill="#dee0de" d="M 8 15.632812 C 7.992188 15.375 8.042969 15.167969 8.714844 15.15625 C 9.382812 15.144531 8 15.820312 8 15.632812 " fill-opacity="1" fill-rule="nonzero"/><path fill="#111111" d="M 12.199219 15.699219 C 12.203125 15.949219 11.738281 16.382812 11.160156 16.394531 C 10.578125 16.402344 10.101562 16.003906 10.09375 15.734375 C 10.089844 15.359375 10.164062 15.054688 11.136719 15.035156 C 12.109375 15.019531 12.191406 15.324219 12.199219 15.699219 " fill-opacity="1" fill-rule="nonzero"/><path fill="#dee0de" d="M 10.246094 15.636719 C 10.238281 15.378906 10.289062 15.167969 10.960938 15.15625 C 11.628906 15.144531 10.246094 15.820312 10.246094 15.636719 " fill-opacity="1" fill-rule="nonzero"/><path fill="#c21d59" d="M 12.863281 16.542969 C 12.839844 16.589844 12.757812 16.628906 12.707031 16.601562 L 12.195312 16.308594 C 12.144531 16.28125 12.140625 16.191406 12.167969 16.144531 L 12.859375 14.886719 C 12.886719 14.835938 12.949219 14.820312 13 14.847656 L 13.511719 15.140625 C 13.5625 15.167969 13.585938 15.234375 13.558594 15.28125 L 12.863281 16.542969 " fill-opacity="1" fill-rule="nonzero"/><path fill="#2e3030" d="M 13.175781 16.039062 C 13.167969 16.039062 13.160156 16.039062 13.152344 16.035156 C 13.023438 15.976562 12.847656 15.976562 12.84375 15.976562 C 12.8125 15.976562 12.785156 15.949219 12.785156 15.917969 C 12.785156 15.882812 12.808594 15.855469 12.84375 15.855469 C 12.851562 15.855469 13.046875 15.851562 13.203125 15.921875 C 13.230469 15.9375 13.246094 15.972656 13.230469 16.003906 C 13.222656 16.027344 13.199219 16.039062 13.175781 16.039062 " fill-opacity="1" fill-rule="nonzero"/><path fill="#2e3030" d="M 12.960938 15.550781 C 12.980469 15.550781 13 15.558594 13.011719 15.578125 C 13.101562 15.710938 13.214844 15.878906 13.214844 15.878906 L 13.113281 15.949219 C 13.113281 15.949219 13 15.777344 12.914062 15.644531 C 12.894531 15.617188 12.902344 15.582031 12.929688 15.5625 C 12.9375 15.554688 12.949219 15.550781 12.960938 15.550781 " fill-opacity="1" fill-rule="nonzero"/><path fill="#2e3030" d="M 12.34375 17.113281 C 12.3125 17.113281 12.285156 17.089844 12.285156 17.054688 C 12.28125 17.023438 12.308594 16.992188 12.339844 16.992188 C 12.765625 16.964844 13.035156 16.855469 13.152344 16.660156 C 13.253906 16.484375 13.234375 16.238281 13.089844 15.925781 C 13.074219 15.894531 13.089844 15.859375 13.117188 15.84375 C 13.148438 15.828125 13.183594 15.84375 13.199219 15.875 C 13.359375 16.226562 13.378906 16.511719 13.253906 16.722656 C 13.117188 16.953125 12.8125 17.085938 12.347656 17.113281 C 12.347656 17.113281 12.34375 17.113281 12.34375 17.113281 " fill-opacity="1" fill-rule="nonzero"/><path fill="#2e3030" d="M 13.210938 15.941406 C 13.203125 15.941406 13.195312 15.941406 13.191406 15.9375 C 13.160156 15.925781 13.144531 15.890625 13.152344 15.859375 C 13.183594 15.769531 13.1875 15.699219 13.113281 15.550781 C 13.097656 15.523438 13.109375 15.484375 13.136719 15.46875 C 13.167969 15.453125 13.203125 15.464844 13.21875 15.496094 C 13.300781 15.660156 13.3125 15.761719 13.265625 15.902344 C 13.257812 15.925781 13.234375 15.941406 13.210938 15.941406 " fill-opacity="1" fill-rule="nonzero"/><path fill="#2e3030" d="M 12.992188 15.839844 C 12.984375 15.917969 13.042969 15.992188 13.125 16 C 13.203125 16.007812 13.277344 15.949219 13.285156 15.867188 C 13.292969 15.789062 13.234375 15.714844 13.152344 15.707031 C 13.074219 15.699219 13.003906 15.757812 12.992188 15.839844 " fill-opacity="1" fill-rule="nonzero"/><g fill="#000000" fill-opacity="1"><g transform="translate(21.496194, 19.273894)"><g><path d="M 9.40625 -3.203125 C 9.945312 -3.203125 10.46875 -3.28125 10.96875 -3.4375 C 11.476562 -3.601562 11.851562 -3.765625 12.09375 -3.921875 L 12.453125 -4.171875 L 13.96875 -1.15625 C 13.914062 -1.113281 13.84375 -1.0625 13.75 -1 C 13.664062 -0.9375 13.460938 -0.816406 13.140625 -0.640625 C 12.816406 -0.472656 12.472656 -0.328125 12.109375 -0.203125 C 11.742188 -0.078125 11.265625 0.03125 10.671875 0.125 C 10.085938 0.226562 9.484375 0.28125 8.859375 0.28125 C 7.410156 0.28125 6.039062 -0.0703125 4.75 -0.78125 C 3.457031 -1.488281 2.414062 -2.460938 1.625 -3.703125 C 0.832031 -4.953125 0.4375 -6.300781 0.4375 -7.75 C 0.4375 -8.84375 0.664062 -9.890625 1.125 -10.890625 C 1.59375 -11.898438 2.210938 -12.757812 2.984375 -13.46875 C 3.753906 -14.1875 4.65625 -14.757812 5.6875 -15.1875 C 6.71875 -15.613281 7.773438 -15.828125 8.859375 -15.828125 C 9.859375 -15.828125 10.78125 -15.707031 11.625 -15.46875 C 12.476562 -15.226562 13.082031 -14.988281 13.4375 -14.75 L 13.96875 -14.390625 L 12.453125 -11.375 C 12.367188 -11.457031 12.238281 -11.550781 12.0625 -11.65625 C 11.882812 -11.757812 11.53125 -11.898438 11 -12.078125 C 10.476562 -12.253906 9.945312 -12.34375 9.40625 -12.34375 C 8.550781 -12.34375 7.785156 -12.203125 7.109375 -11.921875 C 6.429688 -11.648438 5.894531 -11.285156 5.5 -10.828125 C 5.101562 -10.378906 4.800781 -9.894531 4.59375 -9.375 C 4.382812 -8.851562 4.28125 -8.320312 4.28125 -7.78125 C 4.28125 -6.601562 4.722656 -5.546875 5.609375 -4.609375 C 6.492188 -3.671875 7.757812 -3.203125 9.40625 -3.203125 Z M 9.40625 -3.203125 "/></g></g></g><g fill="#000000" fill-opacity="1"><g transform="translate(35.682506, 19.273894)"><g><path d="M 1.78125 -1.1875 C 0.882812 -2.175781 0.4375 -3.382812 0.4375 -4.8125 C 0.4375 -6.25 0.882812 -7.460938 1.78125 -8.453125 C 2.6875 -9.453125 3.835938 -9.953125 5.234375 -9.953125 C 6.515625 -9.953125 7.570312 -9.550781 8.40625 -8.75 L 8.40625 -9.671875 L 11.734375 -9.671875 L 11.734375 0 L 8.4375 0 L 8.4375 -1.09375 L 8.40625 -1.09375 C 7.570312 -0.175781 6.515625 0.28125 5.234375 0.28125 C 3.835938 0.28125 2.6875 -0.207031 1.78125 -1.1875 Z M 4.625 -6.46875 C 4.1875 -6.039062 3.96875 -5.492188 3.96875 -4.828125 C 3.96875 -4.160156 4.175781 -3.613281 4.59375 -3.1875 C 5.007812 -2.769531 5.554688 -2.5625 6.234375 -2.5625 C 6.890625 -2.5625 7.425781 -2.773438 7.84375 -3.203125 C 8.269531 -3.628906 8.484375 -4.171875 8.484375 -4.828125 C 8.484375 -5.492188 8.265625 -6.039062 7.828125 -6.46875 C 7.390625 -6.894531 6.859375 -7.109375 6.234375 -7.109375 C 5.597656 -7.109375 5.0625 -6.894531 4.625 -6.46875 Z M 4.625 -6.46875 "/></g></g></g><g fill="#000000" fill-opacity="1"><g transform="translate(48.550031, 19.273894)"><g><path d="M 1.125 0 L 1.125 -16.203125 L 4.46875 -16.203125 L 4.46875 0 Z M 1.125 0 "/></g></g></g><g fill="#000000" fill-opacity="1"><g transform="translate(54.14543, 19.273894)"><g><path d="M 10.125 -15.546875 L 10.125 -12.4375 L 4.671875 -12.4375 L 4.671875 -9.34375 L 9.703125 -9.34375 L 9.703125 -6.234375 L 4.671875 -6.234375 L 4.671875 0 L 1.125 0 L 1.125 -15.546875 Z M 10.125 -15.546875 "/></g></g></g><g fill="#000000" fill-opacity="1"><g transform="translate(64.827559, 19.273894)"><g><path d="M 4.28125 -9.671875 L 4.28125 -5.0625 C 4.28125 -4.113281 4.421875 -3.4375 4.703125 -3.03125 C 4.992188 -2.632812 5.484375 -2.4375 6.171875 -2.4375 C 6.867188 -2.4375 7.359375 -2.632812 7.640625 -3.03125 C 7.929688 -3.4375 8.078125 -4.113281 8.078125 -5.0625 L 8.078125 -9.671875 L 11.421875 -9.671875 L 11.421875 -4.265625 C 11.421875 -2.648438 11 -1.488281 10.15625 -0.78125 C 9.320312 -0.0703125 7.992188 0.28125 6.171875 0.28125 C 4.359375 0.28125 3.03125 -0.0703125 2.1875 -0.78125 C 1.351562 -1.488281 0.9375 -2.648438 0.9375 -4.265625 L 0.9375 -9.671875 Z M 4.28125 -9.671875 "/></g></g></g><g fill="#000000" fill-opacity="1"><g transform="translate(77.186414, 19.273894)"><g><path d="M 10.90625 -4.375 L 3.90625 -4.375 C 3.90625 -3.695312 4.125 -3.191406 4.5625 -2.859375 C 5 -2.535156 5.476562 -2.375 6 -2.375 C 6.53125 -2.375 6.953125 -2.445312 7.265625 -2.59375 C 7.585938 -2.738281 7.945312 -3.023438 8.34375 -3.453125 L 10.765625 -2.25 C 9.753906 -0.5625 8.082031 0.28125 5.75 0.28125 C 4.289062 0.28125 3.039062 -0.21875 2 -1.21875 C 0.957031 -2.21875 0.4375 -3.421875 0.4375 -4.828125 C 0.4375 -6.234375 0.957031 -7.4375 2 -8.4375 C 3.039062 -9.445312 4.289062 -9.953125 5.75 -9.953125 C 7.28125 -9.953125 8.523438 -9.507812 9.484375 -8.625 C 10.441406 -7.738281 10.921875 -6.472656 10.921875 -4.828125 C 10.921875 -4.597656 10.914062 -4.445312 10.90625 -4.375 Z M 4 -6.21875 L 7.671875 -6.21875 C 7.597656 -6.71875 7.398438 -7.101562 7.078125 -7.375 C 6.753906 -7.644531 6.34375 -7.78125 5.84375 -7.78125 C 5.289062 -7.78125 4.847656 -7.632812 4.515625 -7.34375 C 4.191406 -7.0625 4.019531 -6.6875 4 -6.21875 Z M 4 -6.21875 "/></g></g></g><g fill="#000000" fill-opacity="1"><g transform="translate(88.546765, 19.273894)"><g><path d="M 1.125 0 L 1.125 -16.203125 L 4.46875 -16.203125 L 4.46875 0 Z M 1.125 0 "/></g></g></g></svg>